<?xml version="1.0" encoding="utf-8"?>
<!-- Generator: Adobe Illustrator 22.0.1, SVG Export Plug-In . SVG Version: 6.00 Build 0)  -->
<svg version="1.1" id="Livello_1" xmlns="http://www.w3.org/2000/svg" xmlns:xlink="http://www.w3.org/1999/xlink" x="0px" y="0px"
	 viewBox="0 0 108 108" style="enable-background:new 0 0 108 108;" xml:space="preserve">
<style type="text/css">
	.st0{fill:#FFFFFF;}
</style>
<g>
	<g>
		<g>
			<g>
				<path class="st0" d="M59.7,38.9h-4c-0.4,0-0.7,0.2-0.9,0.5l5.9,5v-4.6l0,0C60.7,39.3,60.3,38.9,59.7,38.9z"/>
			</g>
		</g>
		<g>
			<g>
				<path class="st0" d="M43.7,60.9v10.2h8V60.9H43.7z M48.7,64.9c-0.6,0-1-0.5-1-1s0.5-1,1-1c0.6,0,1,0.5,1,1
					C49.7,64.5,49.3,64.9,48.7,64.9z"/>
			</g>
		</g>
		<g>
			<g>
				<rect x="45.7" y="50.9" class="st0" width="4" height="4"/>
			</g>
		</g>
		<g>
			<g>
				<path class="st0" d="M64,50.2L49,37.4c-0.4-0.3-0.8-0.5-1.3-0.5c-0.5,0-0.9,0.2-1.3,0.5L31.2,50.2c-0.8,0.7-0.9,2-0.2,2.8
					c0.7,0.9,2,1,2.8,0.2l13.9-11.7l13.7,11.8c1,0.8,2.4,0.6,3-0.5C64.9,51.9,64.7,50.9,64,50.2z"/>
			</g>
		</g>
		<g>
			<g>
				<path class="st0" d="M47.7,44.1L34.5,55.3v14.8c0,0.6,0.4,1,1,1h6.2V59.9c0-0.6,0.5-1,1-1h10c0.6,0,1,0.5,1,1v11.2h6
					c0.6,0,1-0.4,1-1V55.3L47.7,44.1z M51.7,55.9c0,0.6-0.5,1-1,1h-6c-0.6,0-1-0.5-1-1v-6c0-0.6,0.5-1,1-1h6c0.6,0,1,0.5,1,1V55.9z"
					/>
			</g>
		</g>
	</g>
	<g>
		<g>
			<path class="st0" d="M71.7,55.7c1.3,0,2.4-1.1,2.4-2.4c0-1.3-1.1-2.4-2.4-2.4s-2.4,1.1-2.4,2.4C69.3,54.6,70.4,55.7,71.7,55.7z"
				/>
			<path class="st0" d="M76.9,51.3l-0.3-0.1c0,0-0.1,0-0.2,0c-0.3,0-0.5,0.2-0.6,0.5l-0.4,3.4c0,0.2-0.2,0.3-0.3,0.4l-2.3,0.7H70
				h-0.2h-0.3c-0.3,0-0.7,0.2-0.9,0.5l-1.9,2.6c-0.2,0.3-0.2,0.7,0,1l1.5,2.7c0.2,0.3,0.5,0.5,0.8,0.5l0.7,3.3
				c0.1,0.4,0.4,0.9,0.7,1.2l1.4,1.2V70c0,0.6,0.5,1.1,1.1,1.1h0.1c0.6,0,1.1-0.5,1.1-1.1v-0.6c0.2-0.1,0.3-0.3,0.3-0.5
				c0-0.2-0.1-0.4-0.3-0.6l-0.1-0.1v-4.7v-0.1v-5.8l2.2-0.8c0.3-0.1,0.6-0.5,0.6-0.8l0.5-4C77.5,51.8,77.3,51.4,76.9,51.3z
				 M71.9,64.2v1.9c-0.1-0.1-0.1-0.3-0.1-0.4l-0.3-1.5L71.9,64.2L71.9,64.2z M69.2,61.4l-0.7-1.2c-0.1-0.1-0.1-0.4,0-0.5l0.7-1V61.4
				L69.2,61.4z"/>
		</g>
	</g>
</g>
</svg>
